<?xml version="1.0" encoding="UTF-8"?><!DOCTYPE svg PUBLIC "-//W3C//DTD SVG 1.1//EN" "http://www.w3.org/Graphics/SVG/1.1/DTD/svg11.dtd"><svg xmlns="http://www.w3.org/2000/svg"><symbol id="i-add" viewBox="0 0 24 24"><path d="M18.984 12.984h-6v6h-1.969v-6h-6v-1.969h6v-6h1.969v6h6v1.969z"/></symbol><symbol id="i-delete" viewBox="0 0 24 24"><path d="M15.516 3.984h3.469V6H5.016V3.984h3.469L9.516 3h4.969zm-7.078 7.875l2.156 2.156-2.109 2.109 1.406 1.406L12 15.421l2.109 2.109 1.406-1.406-2.109-2.109 2.109-2.156-1.406-1.406L12 12.609l-2.109-2.156zM6 18.984v-12h12v12C18 20.062 17.062 21 15.984 21H8.015c-1.078 0-2.016-.938-2.016-2.016z"/></symbol><symbol id="i-edit" viewBox="0 0 24 24"><path d="M20.719 7.031l-1.828 1.828-3.75-3.75 1.828-1.828a1.02 1.02 0 0 1 1.406 0l2.344 2.344a1.02 1.02 0 0 1 0 1.406zM3 17.25L14.063 6.187l3.75 3.75L6.75 21H3v-3.75z"/></symbol><symbol id="i-icons"/><symbol id="i-menu" viewBox="0 0 24 24"><path class="line line-1" d="M5 13h90v14H5z"/><path class="line line-2" d="M5 43h90v14H5z"/><path class="line line-3" d="M5 73h90v14H5z"/></symbol></svg>